<?xml version="1.0" encoding="UTF-8"?>
<svg width="42px" height="42px" viewBox="0 0 42 42" version="1.1" xmlns="http://www.w3.org/2000/svg" xmlns:xlink="http://www.w3.org/1999/xlink">
    <!-- Generator: Sketch 39 (31667) - http://www.bohemiancoding.com/sketch -->
    <title>check-paid-white</title>
    <desc>Created with Sketch.</desc>
    <defs></defs>
    <g id="Symbols" stroke="none" stroke-width="1" fill="none" fill-rule="evenodd">
        <g id="check-paid-white" fill="#FFFFFF">
            <path d="M5,27.16 C5.44800224,27.1066664 5.93066408,27.0666668 6.448,27.04 C6.96533592,27.0133332 7.51199712,27 8.088,27 C8.7813368,27 9.39999728,27.0853325 9.944,27.256 C10.4880027,27.4266675 10.9466648,27.6613318 11.32,27.96 C11.6933352,28.2586682 11.975999,28.6186646 12.168,29.04 C12.360001,29.4613354 12.456,29.9173309 12.456,30.408 C12.456,31.0053363 12.3413345,31.5359977 12.112,32 C11.8826655,32.4640023 11.5626687,32.8559984 11.152,33.176 C10.7413313,33.4960016 10.2480029,33.7386658 9.672,33.904 C9.09599712,34.0693342 8.4613368,34.152 7.768,34.152 C7.31999776,34.152 6.90400192,34.1360002 6.52,34.104 L6.52,38.328 L5,38.328 L5,27.16 Z M7.96,32.888 C8.9200048,32.888 9.65866408,32.6773354 10.176,32.256 C10.6933359,31.8346646 10.952,31.261337 10.952,30.536 C10.952,29.8426632 10.7040025,29.2933354 10.208,28.888 C9.71199752,28.4826646 8.99467136,28.28 8.056,28.28 C7.76799856,28.28 7.49600128,28.2853333 7.24,28.296 C6.98399872,28.3066667 6.74400112,28.3226666 6.52,28.344 L6.52,32.808 C6.69066752,32.8293334 6.8959988,32.8479999 7.136,32.864 C7.3760012,32.8800001 7.65066512,32.888 7.96,32.888 L7.96,32.888 Z M12.056,37.928 L16.44,27.128 L18.104,27.128 L22.424,37.928 L21.032,38.488 L19.784,35.288 L14.6,35.288 L13.352,38.456 L12.056,37.928 Z M15.08,34.008 L19.288,34.008 L17.192,28.632 L15.08,34.008 Z M24.024,38.328 L24.024,27.128 L25.544,27.128 L25.544,38.328 L24.024,38.328 Z M28.424,27.16 C28.9253358,27.1066664 29.4159976,27.0666668 29.896,27.04 C30.3760024,27.0133332 30.9253302,27 31.544,27 C32.5040048,27 33.3306632,27.1493318 34.024,27.448 C34.7173368,27.7466682 35.293331,28.1573307 35.752,28.68 C36.210669,29.2026693 36.5493322,29.8106632 36.768,30.504 C36.9866678,31.1973368 37.096,31.9333294 37.096,32.712 C37.096,33.4906706 36.9840011,34.2293298 36.76,34.928 C36.5359989,35.6266702 36.1920023,36.2373307 35.728,36.76 C35.2639977,37.2826693 34.6720036,37.6959985 33.952,38 C33.2319964,38.3040015 32.3706717,38.456 31.368,38.456 C30.759997,38.456 30.2293356,38.4426668 29.776,38.416 C29.3226644,38.3893332 28.8720022,38.3493336 28.424,38.296 L28.424,27.16 Z M31.496,28.312 C31.1866651,28.312 30.9040013,28.3199999 30.648,28.336 C30.3919987,28.3520001 30.1573344,28.3706666 29.944,28.392 L29.944,37.048 C30.1680011,37.0800002 30.4026654,37.1013333 30.648,37.112 C30.8933346,37.1226667 31.149332,37.128 31.416,37.128 C32.1306702,37.128 32.7493307,37.0186678 33.272,36.8 C33.7946693,36.5813322 34.2239983,36.2773353 34.56,35.888 C34.8960017,35.4986647 35.1439992,35.0346694 35.304,34.496 C35.4640008,33.9573306 35.544,33.3626699 35.544,32.712 C35.544,32.1359971 35.4640008,31.5840026 35.304,31.056 C35.1439992,30.5279974 34.8986683,30.0586687 34.568,29.648 C34.2373317,29.2373313 33.8160026,28.9120012 33.304,28.672 C32.7919974,28.4319988 32.1893368,28.312 31.496,28.312 L31.496,28.312 Z" id="PAID-Copy" stroke="#FFFFFF"></path>
            <polygon id="Shape" points="16.2028337 24 8 15.7971663 10.1029083 13.694258 16.2028337 19.7792692 31.9970172 4 34.0999254 6.10290828"></polygon>
        </g>
    </g>
</svg>