<?xml version="1.0" encoding="UTF-8" standalone="no"?>
<svg width="138px" height="138px" viewBox="0 0 138 138" version="1.1" xmlns="http://www.w3.org/2000/svg" xmlns:xlink="http://www.w3.org/1999/xlink">
    <!-- Generator: Sketch 39.1 (31720) - http://www.bohemiancoding.com/sketch -->
    <title>circle</title>
    <desc>Created with Sketch.</desc>
    <defs></defs>
    <g id="Symbols" stroke="none" stroke-width="1" fill="none" fill-rule="evenodd">
        <g id="circle" fill="#95D356">
            <g id="autorenew" transform="translate(19.000000, 0.000000)">
                <path d="M50.5,31.3636364 L50.5,50.1818182 L75.75,25.0909091 L50.5,0 L50.5,18.8181818 C22.6096201,18.8181818 5.60662627e-15,41.2853471 0,69 C0,78.8481818 2.90375,88.0063636 7.8275,95.7218182 L17.04375,86.5636364 C14.203125,81.3572727 12.625,75.2727273 12.625,69 C12.625,48.2140103 29.5822151,31.3636364 50.5,31.3636364 L50.5,31.3636364 Z M93.1725,42.2781818 L83.95625,51.4363636 C86.73375,56.7054545 88.375,62.7272727 88.375,69 C88.375,89.7859897 71.4177849,106.636364 50.5,106.636364 L50.5,87.8181818 L25.25,112.909091 L50.5,138 L50.5,119.181818 C78.3903799,119.181818 101,96.7146529 101,69 C101,59.1518182 98.09625,49.9936364 93.1725,42.2781818 L93.1725,42.2781818 Z" id="Shape"></path>
            </g>
        </g>
    </g>
</svg>