<?xml version="1.0" encoding="UTF-8"?>
<svg width="256px" height="256px" viewBox="0 0 256 256" version="1.1" xmlns="http://www.w3.org/2000/svg" xmlns:xlink="http://www.w3.org/1999/xlink">
    <!-- Generator: Sketch 39 (31667) - http://www.bohemiancoding.com/sketch -->
    <title>iowho-logo</title>
    <desc>Created with Sketch.</desc>
    <defs></defs>
    <g id="Symbols" stroke="none" stroke-width="1" fill="none" fill-rule="evenodd">
        <g id="iowho-logo">
            <path d="M128.849278,55.3044463 C134.28697,46.039387 140.729634,38.3103857 148.17744,32.1172365 C156.132942,25.5019175 166.339481,21.0959939 178.797361,18.8993335 C186.380419,17.5622358 193.493242,17.518091 200.136046,18.7668977 C206.77885,20.0157043 212.707218,22.2281676 217.921327,25.404354 C223.135436,28.5805403 227.475844,32.6088211 230.942682,37.4893171 C234.40952,42.3698131 236.684111,47.8793113 237.766523,54.017977 C239.135457,61.7815836 238.98848,68.6023279 237.32559,74.4804147 C235.662699,80.3585015 233.21932,85.7691066 229.995381,90.7123924 C226.771441,95.6556781 223.175882,100.338645 219.208596,104.761434 C215.24131,109.184224 211.621874,113.731781 208.350181,118.404243 C205.078488,123.076706 202.56348,128.081082 200.805082,133.417521 C199.046685,138.753961 198.772368,144.85252 199.982123,151.713382 L202.656304,166.879421 L181.532178,170.604175 C180.088227,167.69402 178.822228,164.473296 177.734142,160.941905 C176.646056,157.410515 175.831423,154.110202 175.290216,151.04087 C173.953119,143.457812 174.054959,136.645026 175.595739,130.602308 C177.13652,124.559591 179.428571,119.082589 182.471962,114.171139 C185.515353,109.259688 188.901146,104.706788 192.629445,100.512302 C196.357743,96.3178151 199.807207,92.1260076 202.97794,87.9367534 C206.148674,83.7474993 208.647654,79.4440483 210.474955,75.0262713 C212.302257,70.6084942 212.754283,65.7817178 211.831049,60.545797 C210.716801,54.2265824 207.300495,49.1045591 201.582027,45.1795736 C195.863559,41.2545881 188.851804,40.024334 180.54655,41.4887743 C172.963493,42.8258719 166.556495,45.8171953 161.325366,50.462834 C156.786166,54.4939875 152.800646,59.4787414 149.368717,65.4172115 C145.37333,62.1877687 140.892461,59.5797866 135.926041,57.5932184 C133.621471,56.6713906 131.262553,55.9084671 128.849278,55.3044463 Z" id="Combined-Shape" fill="#446D7D"></path>
            <path d="M92.43,180.25 L101.23,183.44 L83.08,238 L72.19,238 L58.99,195.43 L45.68,238 L34.79,238 L16.75,183.44 L25.88,180.25 L40.62,226.78 L54.04,184.87 L64.71,184.87 L77.8,226.78 L92.43,180.25 Z M112.78,168.394989 L112.78,238 L122.68,238 L122.68,200.16 C123.706672,198.546659 124.879993,197.006674 126.2,195.54 C127.520007,194.073326 128.913326,192.790005 130.38,191.69 C131.846674,190.589994 133.404992,189.728336 135.055,189.105 C136.705008,188.481664 138.373325,188.17 140.06,188.17 C143.580018,188.17 146.274991,189.398321 148.145,191.855 C150.015009,194.311679 150.95,197.629979 150.95,201.81 L150.95,238 L160.85,238 L160.85,200.71 C160.85,194.329968 159.255016,189.196686 156.065,185.31 C152.874984,181.423314 148.053366,179.48 141.6,179.48 C137.273312,179.48 133.551682,180.46999 130.435,182.45 C127.318318,184.43001 124.733344,186.923318 122.68,189.93 L122.68,167.880618 C120.022181,168.238585 117.295518,168.417568 114.5,168.417568 C113.923465,168.417568 113.350131,168.410036 112.779998,168.394973 Z M220.36,209.4 C220.36,206.539986 219.901671,203.826679 218.985,201.26 C218.068329,198.69332 216.785008,196.456676 215.135,194.55 C213.484992,192.643324 211.541678,191.121672 209.305,189.985 C207.068322,188.848328 204.630013,188.28 201.99,188.28 C196.196638,188.28 191.686683,190.186648 188.46,194 C185.233317,197.813352 183.62,202.873302 183.62,209.18 C183.62,212.040014 184.078329,214.771654 184.995,217.375 C185.911671,219.978346 187.194992,222.251657 188.845,224.195 C190.495008,226.138343 192.438322,227.678328 194.675,228.815 C196.911678,229.951672 199.349987,230.52 201.99,230.52 C204.850014,230.52 207.416655,230.006672 209.69,228.98 C211.963345,227.953328 213.888325,226.505009 215.465,224.635 C217.041675,222.764991 218.251662,220.546679 219.095,217.98 C219.938338,215.41332 220.36,212.553349 220.36,209.4 L220.36,209.4 Z M173.5,209.4 C173.5,204.779977 174.233326,200.618352 175.7,196.915 C177.166674,193.211648 179.164987,190.076679 181.695,187.51 C184.225013,184.94332 187.231649,182.96334 190.715,181.57 C194.198351,180.17666 197.956647,179.48 201.99,179.48 C205.95002,179.48 209.671649,180.17666 213.155,181.57 C216.638351,182.96334 219.66332,184.94332 222.23,187.51 C224.79668,190.076679 226.813326,193.193315 228.28,196.86 C229.746674,200.526685 230.48,204.633311 230.48,209.18 C230.48,213.726689 229.765007,217.851648 228.335,221.555 C226.904993,225.258352 224.90668,228.429987 222.34,231.07 C219.77332,233.710013 216.748351,235.744993 213.265,237.175 C209.781649,238.605007 206.023353,239.32 201.99,239.32 C197.883313,239.32 194.088351,238.586674 190.605,237.12 C187.121649,235.653326 184.115013,233.600013 181.585,230.96 C179.054987,228.319987 177.075007,225.166685 175.645,221.5 C174.214993,217.833315 173.5,213.800022 173.5,209.4 L173.5,209.4 Z" id="Combined-Shape" fill="#95D356"></path>
            <path d="M38.7,163 L20.7,163 L20.7,59 L38.7,59 L38.7,163 Z M29.7,41.2 C26.233316,41.2 23.266679,39.966679 20.8,37.5 C18.333321,35.033321 17.1,32.066684 17.1,28.6 C17.1,24.733314 18.233322,21.666678 20.5,19.4 C22.766678,17.133322 25.833314,16 29.7,16 C33.166684,16 36.133321,17.233321 38.6,19.7 C41.066679,22.166679 42.3,25.133316 42.3,28.6 C42.3,32.466686 41.166678,35.533322 38.9,37.8 C36.633322,40.066678 33.566686,41.2 29.7,41.2 L29.7,41.2 Z M147.9,111 C147.9,105.799974 147.066675,100.86669 145.4,96.2 C143.733325,91.53331 141.400015,87.466684 138.4,84 C135.399985,80.533316 131.866687,77.766677 127.8,75.7 C123.733313,73.633323 119.300024,72.6 114.5,72.6 C103.966614,72.6 95.766696,76.066632 89.9,83 C84.033304,89.933368 81.1,99.133276 81.1,110.6 C81.1,115.800026 81.933325,120.766643 83.6,125.5 C85.266675,130.233357 87.599985,134.366649 90.6,137.9 C93.600015,141.433351 97.133313,144.233323 101.2,146.3 C105.266687,148.366677 109.699976,149.4 114.5,149.4 C119.700026,149.4 124.366646,148.466676 128.5,146.6 C132.633354,144.733324 136.133319,142.100017 139,138.7 C141.866681,135.299983 144.066659,131.26669 145.6,126.6 C147.133341,121.93331 147.9,116.733362 147.9,111 L147.9,111 Z M62.7,111 C62.7,102.599958 64.03332,95.033367 66.7,88.3 C69.36668,81.566633 72.999977,75.86669 77.6,71.2 C82.200023,66.53331 87.666635,62.933346 94,60.4 C100.333365,57.866654 107.16663,56.6 114.5,56.6 C121.700036,56.6 128.466635,57.866654 134.8,60.4 C141.133365,62.933346 146.63331,66.53331 151.3,71.2 C155.96669,75.86669 159.63332,81.5333 162.3,88.2 C164.96668,94.8667 166.3,102.333292 166.3,110.6 C166.3,118.866708 165.000013,126.366633 162.4,133.1 C159.799987,139.833367 156.16669,145.599976 151.5,150.4 C146.83331,155.200024 141.333365,158.899987 135,161.5 C128.666635,164.100013 121.83337,165.4 114.5,165.4 C107.033296,165.4 100.133365,164.06668 93.8,161.4 C87.466635,158.73332 82.000023,155.000024 77.4,150.2 C72.799977,145.399976 69.200013,139.6667 66.6,133 C63.999987,126.3333 62.7,119.00004 62.7,111 L62.7,111 Z" id="io" fill="#48DAB9"></path>
        </g>
    </g>
</svg>